<?xml version="1.0" encoding="iso-8859-1"?>
<svg version="1.1" id="Capa_1" 
	xmlns="http://www.w3.org/2000/svg" 
	xmlns:xlink="http://www.w3.org/1999/xlink" x="0px" y="0px" viewBox="0 0 512.002 512.002" style="enable-background:new 0 0 512.002 512.002;" xml:space="preserve">
	<g>
		<path d="M492.001,46c-9.169,0-206.208,0-216,0V20c0-11.046-8.954-20-20-20c-11.046,0-20,8.954-20,20v26c-9.75,0-207.051,0-216,0
			c-11.046,0-20,8.954-20,20s8.954,20,20,20h16v299.997c0,11.046,8.954,20,20,20h55.778l-34.103,77.987
			c-4.425,10.12,0.191,21.912,10.312,26.337c10.122,4.426,21.913-0.192,26.338-10.311l41.111-94.012h201.13l41.111,94.012
			c4.429,10.128,16.226,14.734,26.337,10.311c10.121-4.425,14.737-16.217,10.312-26.337l-34.103-77.987h55.777
			c11.046,0,20-8.954,20-20V85.999h16c11.046,0,20-8.954,20-20C512.001,54.953,503.047,46,492.001,46z M436.001,365.997
			c-3.086,0-356.302,0-360,0V85.999h360V365.997z"/>
	</g>
	<g>
		<path d="M386.001,124.999h-260c-11.046,0-20,8.954-20,20v79.999c0,11.046,8.954,20,20,20h260c11.046,0,20-8.954,20-20v-79.999
			C406.001,133.953,397.047,124.999,386.001,124.999z M366.001,204.998h-220v-40h220V204.998z"/>
	</g>
	<g>
		<path d="M356.001,286.997h-200c-11.046,0-20,8.954-20,20c0,11.046,8.954,20,20,20h200c11.046,0,20-8.954,20-20
			C376.001,295.951,367.047,286.997,356.001,286.997z"/>
	</g>
</svg>
